# xmcd
#
# Track frame offsets: 
#        150
#        11070
#        24247
#        40435
#        57785
#        71282
#        83802
#        97342
#        111567
#        127502
#        142102
#        159317
#        178155
#        193550
#        208172
#        220635
#        248770
#
# Disc length: 4440 seconds
#
# Revision: 1
# Processed by: cddbd v1.5.2PL0 Copyright (c) Steve Scherf et al.
# Submitted via: ExactAudioCopy v0.99pb4
#
DISCID=ed115611
DTITLE=Kandis - Kandis 10
DYEAR=2003
DGENRE=
TTITLE0=I biffen
TTITLE1=De sange vi sang engang
TTITLE2=Nu rejser Jeg hjem
TTITLE3=Blanket on the ground
TTITLE4=Ingen er så dejlig som du
TTITLE5=Blue Jeans i New Orleans
TTITLE6=Det var den sommer
TTITLE7=Tårer fra himlen
TTITLE8=Veronica
TTITLE9=Gør det selv
TTITLE10=Et lille lys
TTITLE11=Whose bed have your boots been under
TTITLE12=Sole Dítaly
TTITLE13=Det er let at være vild med dig
TTITLE14=15 glade år
TTITLE15=Slank igen
TTITLE16=data track
EXTD=
EXTT0=
EXTT1=
EXTT2=
EXTT3=
EXTT4=
EXTT5=
EXTT6=
EXTT7=
EXTT8=
EXTT9=
EXTT10=
EXTT11=
EXTT12=
EXTT13=
EXTT14=
EXTT15=
EXTT16=
PLAYORDER=
